<svg viewBox="0 0 46 18" fill="none" xmlns="http://www.w3.org/2000/svg" aria-hidden="true" role="img" class="icon icon-payment-full-googlepay PaymentSection_icon_LlyCK PaymentSection_icon_LlyCK" style="--vicon-with-gradient-problem__size: 19px;"><g class="googlepay_svg__color"><path fill-rule="evenodd" clip-rule="evenodd" d="M22.122 14.07V8.793h2.764c1.139 0 2.096-.37 2.872-1.11a3.61 3.61 0 001.2-2.765 3.627 3.627 0 00-1.2-2.75 4.01 4.01 0 00-2.872-1.128H20.45v13.03h1.672zm-.002-6.877V2.644h2.805a2.18 2.18 0 011.655.69 2.221 2.221 0 010 3.185 2.21 2.21 0 01-1.655.674H22.12zM35.74 5.856c-.716-.661-1.692-.992-2.928-.992-1.588 0-2.788.582-3.598 1.747l1.473.928c.544-.789 1.284-1.183 2.218-1.183a2.368 2.368 0 011.615.61c.44.365.694.91.69 1.482v.382c-.642-.364-1.46-.545-2.453-.545-1.164 0-2.094.274-2.79.819-.698.545-1.046 1.278-1.046 2.2a2.79 2.79 0 00.991 2.184c.66.582 1.482.873 2.463.873 1.15 0 2.071-.51 2.764-1.528h.072v1.237h1.6V8.576c.001-1.152-.356-2.059-1.072-2.72zm-4.538 6.577a1.337 1.337 0 01-.554-1.092c0-.485.227-.89.685-1.223.454-.327 1.02-.491 1.7-.491.933 0 1.66.208 2.182.623 0 .703-.277 1.316-.832 1.838-.498.5-1.175.78-1.88.781a2.04 2.04 0 01-1.3-.436z" fill="#fff"></path><path d="M45.995 5.155L40.41 18h-1.726l2.072-4.494-3.672-8.35h1.818l2.654 6.404h.037l2.581-6.405h1.821z" fill="#fff"></path><path d="M15.363 7.657c0-.51-.043-1.02-.129-1.522H8.18v2.883h4.04a3.465 3.465 0 01-1.494 2.274v1.872h2.412c1.411-1.303 2.225-3.23 2.225-5.507z" fill="#FBBC04"></path><path d="M8.18 14.972c2.018 0 3.718-.664 4.957-1.807l-2.411-1.872c-.671.456-1.536.716-2.546.716-1.952 0-3.608-1.316-4.2-3.09H1.496v1.928a7.48 7.48 0 006.684 4.125z" fill="#34A853"></path><path d="M3.98 8.918a4.488 4.488 0 010-2.865V4.125H1.496a7.49 7.49 0 000 6.722L3.98 8.919z" fill="#FBBC04"></path><path d="M8.18 2.963a4.06 4.06 0 012.869 1.123l2.135-2.136A7.184 7.184 0 008.18 0a7.48 7.48 0 00-6.684 4.125L3.98 6.053c.593-1.773 2.249-3.09 4.2-3.09z" fill="#34A853"></path></g><g class="googlepay_svg__mono" fill="#34405E"><path fill-rule="evenodd" clip-rule="evenodd" d="M22.122 14.07V8.793h2.764c1.139 0 2.096-.37 2.872-1.11a3.61 3.61 0 001.2-2.765 3.627 3.627 0 00-1.2-2.75 4.01 4.01 0 00-2.872-1.128H20.45v13.03h1.672zm-.002-6.877V2.644h2.805a2.18 2.18 0 011.655.69 2.222 2.222 0 010 3.185 2.21 2.21 0 01-1.655.674H22.12zM35.74 5.856c-.716-.661-1.692-.992-2.928-.992-1.588 0-2.788.582-3.598 1.747l1.473.928c.544-.789 1.284-1.183 2.218-1.183a2.368 2.368 0 011.615.61c.44.365.694.91.69 1.482v.382c-.642-.364-1.46-.545-2.453-.545-1.164 0-2.094.274-2.79.819-.698.545-1.046 1.278-1.046 2.2a2.79 2.79 0 00.991 2.184c.66.582 1.482.873 2.463.873 1.15 0 2.071-.51 2.764-1.528h.072v1.237h1.6V8.576c.001-1.152-.356-2.059-1.072-2.72zm-4.538 6.577a1.337 1.337 0 01-.554-1.092c0-.485.227-.89.685-1.223.454-.327 1.02-.491 1.7-.491.933 0 1.66.208 2.182.623 0 .703-.277 1.316-.832 1.838-.498.5-1.175.78-1.88.781a2.04 2.04 0 01-1.3-.436z"></path><path d="M45.995 5.155L40.41 18h-1.726l2.072-4.494-3.672-8.35h1.818l2.654 6.404h.037l2.581-6.405h1.821zM15.363 7.657c0-.51-.043-1.02-.129-1.522H8.18v2.883h4.04a3.465 3.465 0 01-1.494 2.274v1.872h2.412c1.412-1.303 2.225-3.23 2.225-5.507z"></path><path d="M8.18 14.972c2.018 0 3.718-.664 4.957-1.807l-2.411-1.872c-.671.456-1.536.716-2.546.716-1.952 0-3.608-1.316-4.2-3.09H1.496v1.928a7.48 7.48 0 006.684 4.125z"></path><path d="M3.98 8.918a4.488 4.488 0 010-2.865V4.125H1.496a7.49 7.49 0 000 6.722L3.98 8.919z"></path><path d="M8.18 2.963a4.06 4.06 0 012.869 1.123l2.135-2.136A7.184 7.184 0 008.18 0a7.48 7.48 0 00-6.684 4.125L3.98 6.053c.593-1.773 2.249-3.09 4.2-3.09z"></path></g></svg>